# xmcd
#
# Track frame offsets: 
#        182
#        23560
#        40910
#        51322
#        78427
#        101917
#        122005
#        145500
#        163462
#        181157
#        196660
#
# Disc length: 2861 seconds
#
# Revision: 6
# Processed by: cddbd v1.5.2PL0 Copyright (c) Steve Scherf et al.
# Submitted via: ExactAudioCopy v1.0b1
#
DISCID=8d0b2b0b
DTITLE=Petr Kalandra - Blues Session 2
DYEAR=1994
DGENRE=Blues
TTITLE0=Spital u Sv.Jakuba
TTITLE1=Dum z obili
TTITLE2=Blues o stare stenici
TTITLE3=Nikdy nebudes svuj
TTITLE4=Skladnik
TTITLE5=Chci te znat
TTITLE6=Snad kazda tvar
TTITLE7=Lodnik
TTITLE8=Na ceste
TTITLE9=Mestacky blues
TTITLE10=Cas
EXTD=YEAR: 1994
EXTT0=
EXTT1=
EXTT2=
EXTT3=
EXTT4=
EXTT5=
EXTT6=
EXTT7=
EXTT8=
EXTT9=
EXTT10=
PLAYORDER=
